<svg id="Capa_1" data-name="Capa 1" xmlns="http://www.w3.org/2000/svg" viewBox="0 0 124 136"><defs><style>.cls-1{fill:#f3f3f3;}</style></defs><title>DISEÑO APP DE MERCADOS</title><rect class="cls-1" width="124" height="136" rx="5.46"/><path d="M78.17,80.2H45.83a2.46,2.46,0,0,1-2.46-2.45V58.25a2.46,2.46,0,0,1,2.46-2.45H78.17a2.46,2.46,0,0,1,2.46,2.45v19.5A2.46,2.46,0,0,1,78.17,80.2ZM45.83,57.72a.53.53,0,0,0-.53.53v19.5a.53.53,0,0,0,.53.53H78.17a.53.53,0,0,0,.53-.53V58.25a.53.53,0,0,0-.53-.53Z"/><path d="M73.88,64.3H50.12a1,1,0,1,1,0-1.93H73.88a1,1,0,1,1,0,1.93Z"/><path d="M73.88,67.41H50.12a1,1,0,1,1,0-1.93H73.88a1,1,0,1,1,0,1.93Z"/><path d="M73.88,70.52H50.12a1,1,0,1,1,0-1.93H73.88a1,1,0,1,1,0,1.93Z"/><path d="M61.71,73.63H50.12a1,1,0,1,1,0-1.93H61.71a1,1,0,0,1,0,1.93Z"/></svg>